# xmcd CD database file
# Copyright (C) 1997 Ti Kan
# 
# Track frame offsets:
#     150
#     23125
#     55750
#     74795
#     80157
#     97525
#     107782
#     129105
#     156109
#     172905
#     175397
#     195735
#     221185
#     228385
#     256967
# 
# Disc length: 3655 seconds
# 
# Revision: 1
# Processed by: cddbd v1.4b41PL1 Copyright (c) Steve Scherf et al.
# Submitted via: DiscPlay 4.0.3
# 
DISCID=ca0e450f
DTITLE=Various Artist - Song Of The Mississippi
DYEAR=1900
DGENRE=
TTITLE0=As The River Runs
TTITLE1=Slow Water Blues
TTITLE2=Madam Rosie's Poker Parlor
TTITLE3=Harmonica Hoedown
TTITLE4=Catfish Tales
TTITLE5=River Fiddlin'
TTITLE6=Sweet Prospect
TTITLE7=Reverend White's Get Right Revival
TTITLE8=Mighty Like A Rose
TTITLE9=Piano Jive
TTITLE10=Riverboat Rag
TTITLE11=Mississippi Moon
TTITLE12=Jaw Harp Ham
TTITLE13=Snag Boat Blues
TTITLE14=As The River Runs (Reprise)
EXTD=
EXTT0=
EXTT1=
EXTT2=
EXTT3=
EXTT4=
EXTT5=
EXTT6=
EXTT7=
EXTT8=
EXTT9=
EXTT10=
EXTT11=
EXTT12=
EXTT13=
EXTT14=
PLAYORDER=
